<svg width="736" height="501" viewBox="0 0 736 501" fill="none" xmlns="http://www.w3.org/2000/svg">
<g clip-path="url(#clip0_52_599)">
<path d="M666.664 385.102C664.855 385.102 663.048 384.664 661.434 383.791L643.8 374.251C642.777 373.698 642.165 372.707 642.165 371.6C642.165 370.495 642.777 369.504 643.8 368.95L661.434 359.41C664.658 357.666 668.669 357.665 671.895 359.41L689.53 368.95C690.553 369.504 691.165 370.495 691.165 371.6C691.165 372.707 690.553 373.698 689.53 374.251L671.896 383.791C670.282 384.664 668.473 385.102 666.664 385.102ZM666.664 360.721C665.337 360.721 664.012 361.041 662.83 361.68L645.196 371.22C644.991 371.331 644.961 371.507 644.961 371.6C644.961 371.694 644.993 371.87 645.196 371.983L662.831 381.523H662.833C665.195 382.801 668.132 382.801 670.499 381.523L688.133 371.983C688.337 371.872 688.367 371.696 688.367 371.6C688.367 371.507 688.336 371.331 688.133 371.22L670.497 361.68C669.313 361.039 667.988 360.721 666.664 360.721Z" fill="url(#paint0_linear_52_599)"/>
<path d="M616.165 332.102C613.237 332.102 610.31 331.387 607.7 329.954L577.464 313.379C576.024 312.59 575.165 311.179 575.165 309.601C575.165 308.024 576.024 306.611 577.464 305.824L607.698 289.25C612.917 286.386 619.407 286.385 624.63 289.25L654.867 305.824C656.306 306.612 657.165 308.024 657.165 309.6C657.165 311.177 656.307 312.59 654.869 313.38L624.632 329.954C622.021 331.385 619.092 332.102 616.165 332.102ZM609.092 327.664C613.457 330.055 618.875 330.055 623.24 327.664L653.475 311.091C654.291 310.643 654.378 309.9 654.378 309.601C654.378 309.303 654.289 308.562 653.475 308.113L623.238 291.54C618.873 289.149 613.456 289.149 609.09 291.54L578.857 308.113C578.041 308.561 577.951 309.303 577.951 309.601C577.951 309.9 578.041 310.642 578.857 311.089L609.092 327.664Z" fill="url(#paint1_linear_52_599)"/>
<path d="M72.6666 357.102C69.7028 357.102 66.7406 356.403 64.0981 355.002L33.4909 338.797C32.0333 338.024 31.165 336.643 31.165 335.1C31.165 333.559 32.0348 332.178 33.4909 331.408L64.095 315.203C69.3786 312.401 75.9485 312.401 81.2335 315.203L111.838 331.409C113.295 332.18 114.165 333.56 114.165 335.103C114.165 336.645 113.295 338.027 111.838 338.797L81.2351 355.002C78.5941 356.401 75.6288 357.102 72.6666 357.102ZM72.665 315.689C70.1892 315.689 67.7133 316.274 65.5042 317.443L34.9 333.648C34.0742 334.086 33.9848 334.811 33.9848 335.103C33.9848 335.395 34.0742 336.12 34.9015 336.559L65.5057 352.764C69.924 355.102 75.4076 355.102 79.8259 352.764L110.429 336.559C111.256 336.122 111.344 335.396 111.344 335.104C111.344 334.812 111.254 334.088 110.429 333.649L79.8244 317.443C77.6152 316.273 75.1394 315.689 72.665 315.689Z" fill="url(#paint2_linear_52_599)"/>
<path opacity="0.6" d="M380.424 428.113L163.14 311.86C159.973 310.166 160.37 307.206 164.028 305.249L303.483 230.636C307.141 228.68 312.672 228.467 315.839 230.162L533.123 346.416C536.29 348.112 535.893 351.072 532.236 353.027L392.78 427.639C389.124 429.596 383.591 429.808 380.424 428.113Z" fill="#020230"/>
<path d="M385.402 449.102C382.861 449.102 380.426 448.612 378.565 447.617H378.566L130.58 314.938C128.553 313.856 127.438 312.294 127.438 310.54C127.438 308.525 128.952 306.56 131.591 305.147L300.634 213.369C305.271 210.887 312.081 210.649 316.145 212.822L564.13 345.502C566.156 346.584 567.271 348.148 567.271 349.9C567.271 351.915 565.757 353.879 563.117 355.292L394.075 447.07C391.561 448.416 388.41 449.102 385.402 449.102ZM309.34 213.942C306.801 213.942 304.102 214.509 302.042 215.609L133 307.388C131.269 308.315 130.24 309.491 130.24 310.537C130.24 311.548 131.186 312.266 131.979 312.691L379.965 445.369H379.967C383.132 447.066 388.951 446.818 392.666 444.827L561.709 353.048C563.441 352.121 564.47 350.946 564.47 349.899C564.47 348.89 563.523 348.172 562.731 347.747L314.745 215.067C313.331 214.312 311.388 213.942 309.34 213.942Z" fill="url(#paint3_linear_52_599)"/>
<path d="M590.847 151.518L374.419 35.7224C372.931 34.9263 371.378 34.7618 370.002 35.134L370 35.1354C369.994 35.1368 369.986 35.1396 369.98 35.141L365.973 36.4348L367.384 36.7443C366.818 37.3647 366.362 38.1342 366.063 39.0376L317.118 186.301C315.905 189.953 317.682 194.39 321.085 196.211L537.515 312.006C538.041 312.288 538.575 312.482 539.107 312.609L538.571 313.691L542.4 312.444L542.391 312.441C543.958 311.863 545.251 310.565 545.873 308.69L594.818 161.426C596.026 157.775 594.25 153.339 590.847 151.518Z" fill="url(#paint4_radial_52_599)"/>
<path d="M529.765 317.505L529.842 317.59L316.066 203.215C312.922 201.532 307.428 201.744 303.798 203.686L165.678 277.584L161.073 275.954L162.367 281.942L162.373 281.939C162.544 282.84 163.224 283.683 164.446 284.337L380.198 399.77C383.343 401.453 388.837 401.241 392.467 399.299L530.939 325.213C532.648 324.299 533.63 323.165 533.874 322.044L533.882 322.053L535.202 316.225L529.765 317.505Z" fill="url(#paint5_radial_52_599)"/>
<path d="M380.424 394.5L163.14 278.247C159.973 276.554 160.37 273.594 164.028 271.636L303.483 197.025C307.141 195.069 312.672 194.856 315.839 196.551L533.123 312.804C536.29 314.498 535.893 317.459 532.236 319.415L392.78 394.026C389.124 395.982 383.591 396.195 380.424 394.5Z" fill="url(#paint6_radial_52_599)"/>
<path d="M532.236 317.847L392.78 392.458C389.123 394.415 383.591 394.627 380.424 392.933L163.14 276.68C162.061 276.103 161.428 275.374 161.165 274.592C160.745 275.942 161.359 277.295 163.14 278.247L380.426 394.5C383.592 396.194 389.124 395.982 392.782 394.026L532.237 319.415C534.649 318.125 535.61 316.404 535.1 314.892C534.772 315.942 533.836 316.991 532.236 317.847Z" fill="white"/>
<g opacity="0.4">
<path d="M266.781 259.382L259.446 255.458C258.856 255.143 258.931 254.592 259.611 254.228L268.269 249.595C268.949 249.231 269.978 249.192 270.568 249.507L277.903 253.432C278.493 253.747 278.418 254.298 277.738 254.662L269.078 259.294C268.4 259.658 267.371 259.697 266.781 259.382Z" fill="#06033E"/>
<path d="M278.11 265.444L270.774 261.519C270.184 261.204 270.26 260.653 270.94 260.29L279.599 255.657C280.279 255.293 281.308 255.254 281.896 255.569L289.232 259.494C289.822 259.809 289.746 260.359 289.066 260.723L280.408 265.356C279.728 265.718 278.699 265.759 278.11 265.444Z" fill="#06033E"/>
<path d="M289.439 271.504L282.104 267.58C281.516 267.264 281.589 266.714 282.269 266.35L290.929 261.717C291.609 261.353 292.638 261.314 293.226 261.629L300.562 265.554C301.15 265.869 301.076 266.42 300.396 266.783L291.737 271.416C291.057 271.78 290.028 271.819 289.439 271.504Z" fill="#06033E"/>
<path d="M305.108 266.499L297.772 262.575C297.183 262.26 297.258 261.709 297.938 261.345L305.206 257.457C305.886 257.093 306.915 257.054 307.503 257.369L314.839 261.293C315.427 261.608 315.353 262.159 314.673 262.523L307.405 266.411C306.725 266.775 305.696 266.814 305.108 266.499Z" fill="#06033E"/>
<path d="M316.436 272.561L309.101 268.636C308.511 268.321 308.586 267.771 309.266 267.407L316.536 263.518C317.216 263.155 318.245 263.116 318.833 263.431L326.168 267.355C326.758 267.67 326.683 268.221 326.003 268.585L318.734 272.473C318.054 272.835 317.024 272.876 316.436 272.561Z" fill="#06033E"/>
<path d="M327.765 278.621L320.429 274.697C319.839 274.382 319.915 273.831 320.595 273.467L327.864 269.579C328.544 269.215 329.573 269.176 330.161 269.491L337.497 273.415C338.086 273.731 338.011 274.281 337.331 274.645L330.062 278.533C329.383 278.897 328.354 278.936 327.765 278.621Z" fill="#06033E"/>
<path d="M339.093 284.683L331.757 280.758C331.168 280.443 331.243 279.893 331.923 279.529L339.191 275.64C339.871 275.277 340.9 275.238 341.488 275.553L348.824 279.477C349.413 279.792 349.338 280.343 348.658 280.707L341.39 284.595C340.712 284.957 339.683 284.998 339.093 284.683Z" fill="#06033E"/>
<path d="M350.423 290.743L343.087 286.819C342.498 286.504 342.573 285.953 343.253 285.589L350.522 281.701C351.202 281.337 352.231 281.298 352.819 281.613L360.155 285.537C360.743 285.852 360.669 286.403 359.989 286.767L352.722 290.655C352.04 291.019 351.011 291.058 350.423 290.743Z" fill="#06033E"/>
<path d="M361.751 296.805L354.416 292.88C353.826 292.565 353.901 292.015 354.581 291.651L361.849 287.762C362.529 287.399 363.558 287.36 364.146 287.675L371.482 291.599C372.07 291.914 371.996 292.465 371.316 292.829L364.048 296.717C363.368 297.081 362.339 297.12 361.751 296.805Z" fill="#06033E"/>
<path d="M373.079 302.866L365.744 298.942C365.154 298.627 365.229 298.076 365.909 297.712L373.177 293.824C373.857 293.46 374.886 293.421 375.474 293.736L382.81 297.661C383.398 297.976 383.325 298.527 382.645 298.89L375.375 302.779C374.698 303.141 373.669 303.182 373.079 302.866Z" fill="#06033E"/>
<path d="M384.408 308.927L377.072 305.002C376.484 304.687 376.558 304.137 377.238 303.773L384.507 299.884C385.187 299.521 386.216 299.482 386.804 299.797L394.14 303.721C394.73 304.036 394.654 304.587 393.974 304.951L386.705 308.839C386.027 309.203 384.998 309.242 384.408 308.927Z" fill="#06033E"/>
<path d="M395.738 314.989L388.402 311.064C387.814 310.749 387.888 310.198 388.568 309.834L395.837 305.946C396.517 305.582 397.546 305.543 398.134 305.858L405.47 309.783C406.06 310.098 405.984 310.649 405.304 311.012L398.036 314.901C397.355 315.265 396.326 315.304 395.738 314.989Z" fill="#06033E"/>
<path d="M407.066 321.049L399.73 317.124C399.141 316.809 399.216 316.259 399.896 315.895L407.164 312.006C407.844 311.643 408.873 311.604 409.461 311.919L416.797 315.843C417.385 316.158 417.311 316.709 416.631 317.073L409.362 320.962C408.683 321.325 407.654 321.364 407.066 321.049Z" fill="#06033E"/>
<path d="M321.8 263.63L314.464 259.705C313.874 259.39 313.95 258.84 314.63 258.476L321.897 254.588C322.577 254.224 323.606 254.185 324.196 254.5L331.532 258.424C332.12 258.739 332.046 259.29 331.366 259.654L324.098 263.542C323.417 263.905 322.388 263.945 321.8 263.63Z" fill="#06033E"/>
<path d="M310.301 257.478L302.966 253.553C302.377 253.238 302.451 252.687 303.131 252.324L310.399 248.434C311.079 248.07 312.108 248.031 312.698 248.346L320.033 252.271C320.623 252.586 320.548 253.136 319.868 253.5L312.6 257.388C311.92 257.754 310.891 257.793 310.301 257.478Z" fill="#06033E"/>
<path d="M298.785 251.316L282.985 242.863C282.397 242.548 282.471 241.997 283.151 241.633L290.419 237.745C291.099 237.381 292.128 237.342 292.716 237.657L308.516 246.11C309.105 246.425 309.03 246.976 308.35 247.34L301.082 251.228C300.404 251.592 299.375 251.631 298.785 251.316Z" fill="#06033E"/>
<path d="M306.835 243.822L294.013 236.962C293.423 236.646 293.498 236.096 294.178 235.732L301.446 231.842C302.126 231.478 303.155 231.439 303.744 231.754L316.566 238.615C317.154 238.93 317.08 239.481 316.4 239.845L309.132 243.733C308.452 244.098 307.423 244.139 306.835 243.822Z" fill="#06033E"/>
<path d="M333.128 269.69L325.792 265.766C325.202 265.451 325.278 264.9 325.958 264.536L333.226 260.647C333.906 260.283 334.935 260.244 335.523 260.559L342.858 264.483C343.447 264.798 343.373 265.349 342.693 265.713L335.425 269.601C334.747 269.966 333.718 270.005 333.128 269.69Z" fill="#06033E"/>
<path d="M344.456 275.752L337.121 271.828C336.532 271.512 336.606 270.962 337.286 270.598L344.554 266.708C345.234 266.344 346.263 266.305 346.851 266.62L354.187 270.545C354.777 270.86 354.701 271.411 354.021 271.775L346.752 275.663C346.075 276.028 345.046 276.067 344.456 275.752Z" fill="#06033E"/>
<path d="M355.786 281.812L348.45 277.888C347.861 277.573 347.936 277.022 348.616 276.658L355.885 272.77C356.565 272.406 357.594 272.367 358.183 272.682L365.518 276.607C366.108 276.922 366.033 277.472 365.353 277.836L358.083 281.724C357.403 282.088 356.374 282.127 355.786 281.812Z" fill="#06033E"/>
<path d="M367.114 287.874L359.779 283.949C359.189 283.634 359.264 283.084 359.944 282.72L367.214 278.832C367.894 278.468 368.923 278.429 369.511 278.744L376.847 282.668C377.435 282.983 377.361 283.534 376.681 283.898L369.413 287.786C368.732 288.15 367.703 288.189 367.114 287.874Z" fill="#06033E"/>
<path d="M378.443 293.936L371.107 290.011C370.519 289.696 370.593 289.145 371.273 288.782L378.541 284.893C379.221 284.529 380.25 284.49 380.838 284.805L388.173 288.73C388.762 289.045 388.688 289.596 388.008 289.96L380.739 293.848C380.062 294.21 379.032 294.251 378.443 293.936Z" fill="#06033E"/>
<path d="M389.771 299.996L382.436 296.072C381.846 295.756 381.921 295.206 382.601 294.842L389.87 290.954C390.55 290.59 391.579 290.551 392.168 290.866L399.503 294.79C400.093 295.105 400.018 295.656 399.338 296.02L392.068 299.908C391.39 300.272 390.361 300.311 389.771 299.996Z" fill="#06033E"/>
<path d="M401.101 306.058L393.765 302.133C393.176 301.818 393.251 301.267 393.931 300.904L401.2 297.015C401.88 296.651 402.909 296.612 403.497 296.927L410.833 300.852C411.423 301.167 411.348 301.718 410.668 302.082L403.4 305.97C402.718 306.332 401.689 306.373 401.101 306.058Z" fill="#06033E"/>
<path d="M412.429 312.118L405.094 308.194C404.504 307.878 404.579 307.328 405.259 306.964L412.529 303.076C413.209 302.712 414.238 302.673 414.826 302.988L422.161 306.912C422.751 307.227 422.676 307.778 421.996 308.142L414.728 312.03C414.048 312.394 413.019 312.434 412.429 312.118Z" fill="#06033E"/>
<path d="M423.758 318.18L416.422 314.255C415.834 313.94 415.907 313.389 416.587 313.026L423.855 309.137C424.535 308.773 425.564 308.734 426.154 309.05L433.49 312.974C434.078 313.289 434.004 313.84 433.324 314.204L426.056 318.092C425.376 318.456 424.347 318.495 423.758 318.18Z" fill="#06033E"/>
<path d="M443.897 328.955L427.892 320.391C427.303 320.076 427.377 319.525 428.057 319.161L435.327 315.272C436.007 314.908 437.036 314.869 437.624 315.184L453.629 323.748C454.219 324.063 454.144 324.614 453.464 324.978L446.196 328.866C445.516 329.231 444.487 329.27 443.897 328.955Z" fill="#06033E"/>
<path d="M465.954 317.155L452.444 309.926C451.854 309.611 451.93 309.061 452.61 308.697L459.879 304.809C460.559 304.445 461.588 304.406 462.176 304.721L475.686 311.949C476.274 312.264 476.2 312.815 475.52 313.179L468.251 317.067C467.571 317.431 466.542 317.47 465.954 317.155Z" fill="#06033E"/>
<path d="M352.967 268.505L345.631 264.581C345.041 264.266 345.117 263.715 345.797 263.351L353.065 259.463C353.745 259.099 354.774 259.06 355.363 259.375L362.699 263.3C363.289 263.615 363.213 264.165 362.533 264.529L355.266 268.417C354.586 268.78 353.556 268.82 352.967 268.505Z" fill="#06033E"/>
<path d="M341.357 262.293L334.022 258.369C333.432 258.053 333.507 257.503 334.187 257.139L341.456 253.251C342.136 252.887 343.165 252.848 343.754 253.163L351.089 257.087C351.679 257.402 351.604 257.953 350.924 258.317L343.654 262.205C342.974 262.568 341.945 262.608 341.357 262.293Z" fill="#06033E"/>
<path d="M329.746 256.081L322.411 252.156C321.821 251.841 321.896 251.29 322.576 250.927L329.845 247.038C330.525 246.675 331.554 246.635 332.143 246.951L339.478 250.875C340.068 251.19 339.993 251.741 339.313 252.105L332.045 255.993C331.363 256.357 330.336 256.396 329.746 256.081Z" fill="#06033E"/>
<path d="M318.136 249.868L310.801 245.944C310.213 245.629 310.286 245.078 310.966 244.714L318.234 240.826C318.914 240.462 319.943 240.423 320.531 240.738L327.867 244.663C328.455 244.978 328.381 245.529 327.701 245.892L320.432 249.781C319.754 250.145 318.725 250.184 318.136 249.868Z" fill="#06033E"/>
<path d="M364.296 274.566L356.961 270.641C356.371 270.326 356.446 269.775 357.126 269.411L364.396 265.522C365.076 265.158 366.105 265.119 366.693 265.434L374.029 269.358C374.618 269.674 374.543 270.224 373.863 270.588L366.594 274.478C365.914 274.842 364.885 274.881 364.296 274.566Z" fill="#06033E"/>
<path d="M375.625 280.627L368.289 276.703C367.7 276.388 367.775 275.837 368.455 275.473L375.723 271.585C376.403 271.221 377.432 271.182 378.02 271.497L385.356 275.422C385.945 275.737 385.87 276.287 385.19 276.651L377.921 280.541C377.242 280.903 376.213 280.942 375.625 280.627Z" fill="#06033E"/>
<path d="M386.953 286.688L379.618 282.763C379.028 282.448 379.103 281.897 379.783 281.533L387.051 277.644C387.731 277.28 388.76 277.241 389.35 277.556L396.685 281.48C397.274 281.796 397.2 282.346 396.52 282.71L389.252 286.598C388.57 286.964 387.543 287.003 386.953 286.688Z" fill="#06033E"/>
<path d="M398.282 292.749L390.946 288.825C390.356 288.51 390.431 287.959 391.111 287.595L398.379 283.706C399.059 283.342 400.088 283.303 400.677 283.618L408.012 287.542C408.602 287.857 408.527 288.408 407.847 288.772L400.579 292.661C399.9 293.025 398.871 293.064 398.282 292.749Z" fill="#06033E"/>
<path d="M409.611 298.811L402.276 294.887C401.686 294.571 401.761 294.021 402.441 293.657L409.709 289.769C410.389 289.405 411.418 289.366 412.006 289.681L419.342 293.605C419.932 293.92 419.857 294.471 419.177 294.835L411.907 298.725C411.229 299.086 410.2 299.126 409.611 298.811Z" fill="#06033E"/>
<path d="M420.94 304.871L413.604 300.947C413.014 300.632 413.09 300.081 413.77 299.717L421.039 295.828C421.719 295.464 422.748 295.425 423.336 295.74L430.672 299.664C431.262 299.979 431.186 300.53 430.506 300.894L423.237 304.782C422.557 305.147 421.528 305.186 420.94 304.871Z" fill="#06033E"/>
<path d="M432.268 310.933L424.932 307.008C424.344 306.693 424.418 306.143 425.098 305.779L432.367 301.891C433.047 301.527 434.076 301.488 434.665 301.803L442 305.727C442.588 306.042 442.515 306.593 441.835 306.957L434.567 310.845C433.887 311.209 432.858 311.248 432.268 310.933Z" fill="#06033E"/>
<path d="M443.598 316.993L436.262 313.069C435.674 312.754 435.748 312.203 436.428 311.839L443.697 307.951C444.377 307.587 445.406 307.548 445.994 307.863L453.33 311.788C453.918 312.103 453.845 312.653 453.165 313.017L445.895 316.905C445.215 317.269 444.186 317.308 443.598 316.993Z" fill="#06033E"/>
<path d="M454.926 323.055L447.591 319.131C447.001 318.815 447.076 318.265 447.756 317.901L455.024 314.013C455.704 313.649 456.733 313.61 457.321 313.925L464.657 317.849C465.247 318.164 465.173 318.715 464.492 319.079L457.222 322.969C456.544 323.331 455.515 323.37 454.926 323.055Z" fill="#06033E"/>
<path d="M347.002 253.513L339.666 249.588C339.076 249.273 339.152 248.722 339.832 248.359L347.099 244.47C347.779 244.106 348.809 244.067 349.398 244.383L356.734 248.307C357.324 248.622 357.248 249.173 356.568 249.537L349.3 253.425C348.619 253.789 347.591 253.828 347.002 253.513Z" fill="#06033E"/>
<path d="M335.729 247.482L328.394 243.557C327.805 243.242 327.879 242.691 328.559 242.328L335.827 238.438C336.507 238.074 337.536 238.035 338.126 238.35L345.461 242.275C346.051 242.59 345.976 243.14 345.296 243.504L338.028 247.392C337.348 247.758 336.319 247.797 335.729 247.482Z" fill="#06033E"/>
<path d="M324.458 241.451L317.122 237.526C316.534 237.211 316.608 236.66 317.288 236.297L324.556 232.407C325.236 232.043 326.265 232.004 326.853 232.319L334.188 236.244C334.777 236.559 334.703 237.109 334.023 237.473L326.755 241.363C326.075 241.727 325.046 241.766 324.458 241.451Z" fill="#06033E"/>
<path d="M313.185 235.42L305.85 231.495C305.261 231.18 305.335 230.629 306.015 230.266L313.283 226.377C313.963 226.013 314.992 225.974 315.58 226.289L322.916 230.214C323.506 230.529 323.432 231.08 322.75 231.444L315.483 235.332C314.803 235.696 313.774 235.735 313.185 235.42Z" fill="#06033E"/>
<path d="M324.777 229.219L317.441 225.294C316.852 224.979 316.927 224.428 317.607 224.064L320.009 222.779C320.689 222.415 321.718 222.376 322.307 222.691L329.642 226.616C330.232 226.931 330.157 227.481 329.477 227.845L327.074 229.131C326.394 229.493 325.365 229.534 324.777 229.219Z" fill="#06033E"/>
<path d="M339.487 237.088L332.152 233.164C331.563 232.849 331.637 232.298 332.317 231.934L334.72 230.649C335.4 230.285 336.429 230.246 337.017 230.561L344.352 234.486C344.942 234.801 344.867 235.351 344.187 235.715L341.784 237.001C341.104 237.364 340.075 237.404 339.487 237.088Z" fill="#06033E"/>
<path d="M350.712 243.094L343.376 239.17C342.786 238.855 342.861 238.304 343.541 237.94L345.944 236.655C346.624 236.291 347.653 236.252 348.243 236.567L355.578 240.492C356.167 240.807 356.093 241.357 355.413 241.721L353.01 243.007C352.33 243.37 351.301 243.409 350.712 243.094Z" fill="#06033E"/>
<path d="M361.938 249.1L354.602 245.176C354.014 244.861 354.088 244.31 354.768 243.946L357.17 242.661C357.85 242.297 358.879 242.258 359.467 242.573L366.803 246.497C367.393 246.813 367.318 247.363 366.638 247.727L364.235 249.012C363.555 249.376 362.526 249.415 361.938 249.1Z" fill="#06033E"/>
<path d="M373.162 255.106L365.827 251.182C365.238 250.867 365.312 250.316 365.992 249.952L368.395 248.667C369.075 248.303 370.104 248.264 370.692 248.579L378.028 252.503C378.617 252.818 378.542 253.369 377.862 253.733L375.459 255.018C374.781 255.382 373.752 255.421 373.162 255.106Z" fill="#06033E"/>
<path d="M435.832 288.637L428.496 284.712C427.908 284.397 427.982 283.846 428.662 283.482L431.064 282.197C431.744 281.833 432.774 281.794 433.362 282.109L440.697 286.034C441.287 286.349 441.212 286.899 440.532 287.263L438.129 288.549C437.451 288.911 436.422 288.952 435.832 288.637Z" fill="#06033E"/>
<path d="M447.058 294.641L439.722 290.717C439.133 290.402 439.208 289.851 439.888 289.487L442.29 288.202C442.97 287.838 443.999 287.799 444.589 288.114L451.925 292.038C452.515 292.353 452.439 292.904 451.759 293.268L449.357 294.553C448.675 294.917 447.646 294.958 447.058 294.641Z" fill="#06033E"/>
<path d="M458.284 300.647L450.948 296.723C450.359 296.407 450.434 295.857 451.114 295.493L453.517 294.208C454.197 293.844 455.226 293.805 455.814 294.12L463.149 298.044C463.738 298.359 463.664 298.91 462.984 299.274L460.581 300.559C459.901 300.923 458.872 300.964 458.284 300.647Z" fill="#06033E"/>
<path d="M469.509 306.653L462.173 302.728C461.583 302.413 461.659 301.863 462.339 301.499L464.741 300.213C465.421 299.85 466.45 299.811 467.038 300.126L474.374 304.05C474.964 304.365 474.888 304.916 474.208 305.28L471.806 306.565C471.126 306.929 470.098 306.968 469.509 306.653Z" fill="#06033E"/>
<path d="M358.33 259.574L350.994 255.65C350.406 255.335 350.48 254.784 351.16 254.42L358.428 250.532C359.108 250.168 360.137 250.129 360.725 250.444L368.061 254.369C368.649 254.684 368.575 255.235 367.895 255.598L360.627 259.487C359.949 259.849 358.92 259.89 358.33 259.574Z" fill="#06033E"/>
<path d="M369.66 265.635L362.324 261.71C361.735 261.395 361.81 260.844 362.49 260.481L369.758 256.592C370.438 256.229 371.467 256.189 372.055 256.505L379.391 260.429C379.98 260.744 379.905 261.295 379.225 261.659L371.957 265.547C371.277 265.911 370.248 265.95 369.66 265.635Z" fill="#06033E"/>
<path d="M380.988 271.696L373.653 267.772C373.063 267.457 373.138 266.906 373.818 266.542L381.086 262.654C381.766 262.29 382.795 262.251 383.383 262.566L390.719 266.491C391.309 266.806 391.233 267.357 390.553 267.72L383.284 271.61C382.605 271.972 381.578 272.012 380.988 271.696Z" fill="#06033E"/>
<path d="M392.317 277.758L384.981 273.834C384.391 273.519 384.466 272.968 385.146 272.604L392.416 268.716C393.096 268.352 394.125 268.313 394.713 268.628L402.049 272.552C402.638 272.868 402.563 273.418 401.883 273.782L394.615 277.67C393.935 278.033 392.906 278.073 392.317 277.758Z" fill="#06033E"/>
<path d="M403.646 283.818L396.311 279.894C395.723 279.579 395.796 279.028 396.476 278.664L403.746 274.776C404.426 274.412 405.455 274.373 406.043 274.688L413.379 278.613C413.967 278.928 413.893 279.479 413.213 279.842L405.945 283.732C405.264 284.094 404.235 284.134 403.646 283.818Z" fill="#06033E"/>
<path d="M414.975 289.88L407.639 285.956C407.049 285.641 407.125 285.09 407.805 284.726L415.074 280.838C415.754 280.474 416.783 280.435 417.371 280.75L424.707 284.674C425.295 284.99 425.221 285.54 424.541 285.904L417.272 289.794C416.592 290.155 415.563 290.195 414.975 289.88Z" fill="#06033E"/>
<path d="M426.303 295.94L418.967 292.016C418.378 291.701 418.453 291.15 419.133 290.786L426.402 286.898C427.082 286.534 428.111 286.495 428.7 286.81L436.035 290.735C436.625 291.05 436.55 291.6 435.87 291.964L428.6 295.853C427.92 296.216 426.893 296.256 426.303 295.94Z" fill="#06033E"/>
<path d="M437.631 302.002L430.296 298.078C429.706 297.763 429.781 297.212 430.461 296.848L437.729 292.96C438.409 292.596 439.438 292.557 440.027 292.872L447.362 296.796C447.952 297.112 447.877 297.662 447.197 298.026L439.929 301.916C439.25 302.278 438.221 302.317 437.631 302.002Z" fill="#06033E"/>
<path d="M448.961 308.062L441.626 304.138C441.037 303.823 441.111 303.272 441.791 302.908L449.06 299.02C449.74 298.656 450.769 298.617 451.358 298.932L458.693 302.857C459.283 303.172 459.208 303.723 458.528 304.086L451.26 307.975C450.578 308.338 449.549 308.379 448.961 308.062Z" fill="#06033E"/>
<path d="M293.563 260.322L271.958 248.763C271.37 248.448 271.443 247.897 272.123 247.533L279.391 243.645C280.071 243.281 281.1 243.242 281.69 243.557L303.295 255.116C303.883 255.431 303.81 255.982 303.13 256.346L295.86 260.234C295.18 260.598 294.151 260.638 293.563 260.322Z" fill="#06033E"/>
<path d="M432.739 334.785L411.134 323.226C410.546 322.911 410.619 322.361 411.299 321.997L418.569 318.109C419.249 317.745 420.278 317.706 420.866 318.021L442.471 329.58C443.061 329.895 442.986 330.445 442.306 330.809L435.036 334.697C434.356 335.06 433.327 335.1 432.739 334.785Z" fill="#06033E"/>
<path d="M387.433 323.933L380.098 320.009C379.508 319.694 379.583 319.143 380.263 318.779L388.923 314.146C389.603 313.783 390.632 313.744 391.22 314.059L398.555 317.983C399.144 318.298 399.07 318.849 398.39 319.213L389.73 323.845C389.052 324.209 388.023 324.25 387.433 323.933Z" fill="#06033E"/>
<path d="M305.164 279.918L293.432 273.641C292.844 273.326 292.918 272.776 293.598 272.412L302.257 267.779C302.937 267.415 303.966 267.376 304.554 267.691L316.286 273.967C316.876 274.283 316.8 274.833 316.12 275.197L307.461 279.83C306.782 280.194 305.753 280.233 305.164 279.918Z" fill="#06033E"/>
<path d="M376.519 318.095L364.787 311.818C364.197 311.503 364.273 310.952 364.953 310.589L373.612 305.956C374.292 305.592 375.321 305.553 375.909 305.868L387.641 312.144C388.229 312.46 388.155 313.01 387.475 313.374L378.817 318.007C378.136 318.369 377.107 318.41 376.519 318.095Z" fill="#06033E"/>
<path d="M321.509 288.663L309.778 282.387C309.189 282.072 309.263 281.521 309.943 281.157L318.603 276.524C319.283 276.16 320.312 276.121 320.9 276.437L332.631 282.713C333.221 283.028 333.146 283.579 332.466 283.943L323.806 288.575C323.126 288.938 322.097 288.978 321.509 288.663Z" fill="#06033E"/>
<path d="M320.978 276.478L371.986 303.768C372.619 304.107 372.619 304.657 371.986 304.995L363.156 309.719C362.523 310.057 361.497 310.057 360.864 309.719L309.856 282.428L320.978 276.478Z" fill="#06033E"/>
<path d="M419.096 334.923L427.268 339.295C427.75 339.553 427.69 340.005 427.132 340.303L423.589 342.198C423.033 342.496 422.189 342.528 421.706 342.27L413.535 337.898C413.052 337.64 413.112 337.189 413.671 336.89L417.212 334.996C417.77 334.697 418.613 334.665 419.096 334.923Z" fill="#06033E"/>
<path d="M407.672 328.811L415.844 333.183C416.327 333.441 416.267 333.893 415.709 334.191L412.167 336.086C411.609 336.384 410.767 336.416 410.284 336.158L402.113 331.786C401.63 331.529 401.691 331.077 402.249 330.779L405.79 328.884C406.347 328.587 407.189 328.553 407.672 328.811Z" fill="#06033E"/>
<path d="M396.344 322.751L404.516 327.123C404.999 327.381 404.939 327.833 404.381 328.131L400.839 330.026C400.281 330.324 399.438 330.356 398.956 330.098L390.784 325.726C390.301 325.468 390.361 325.017 390.919 324.718L394.46 322.824C395.018 322.525 395.861 322.493 396.344 322.751Z" fill="#06033E"/>
<path d="M413.929 325.465L422.1 329.837C422.583 330.095 422.522 330.547 421.964 330.845L418.421 332.74C417.865 333.038 417.021 333.07 416.538 332.813L408.366 328.441C407.883 328.183 407.943 327.731 408.501 327.433L412.044 325.538C412.602 325.24 413.446 325.206 413.929 325.465Z" fill="#06033E"/>
</g>
<g opacity="0.4">
<path d="M266.781 259.382L259.446 255.458C258.856 255.143 258.931 254.592 259.611 254.228L268.269 249.595C268.949 249.231 269.978 249.192 270.568 249.507L277.903 253.432C278.493 253.747 278.418 254.298 277.738 254.662L269.078 259.294C268.4 259.658 267.371 259.697 266.781 259.382Z" fill="#06033E"/>
<path d="M278.11 265.444L270.774 261.519C270.184 261.204 270.26 260.653 270.94 260.29L279.599 255.657C280.279 255.293 281.308 255.254 281.896 255.569L289.232 259.494C289.822 259.809 289.746 260.359 289.066 260.723L280.408 265.356C279.728 265.718 278.699 265.759 278.11 265.444Z" fill="#06033E"/>
<path d="M289.439 271.504L282.104 267.58C281.516 267.264 281.589 266.714 282.269 266.35L290.929 261.717C291.609 261.353 292.638 261.314 293.226 261.629L300.562 265.554C301.15 265.869 301.076 266.42 300.396 266.783L291.737 271.416C291.057 271.78 290.028 271.819 289.439 271.504Z" fill="#06033E"/>
<path d="M305.108 266.499L297.772 262.575C297.183 262.26 297.258 261.709 297.938 261.345L305.206 257.457C305.886 257.093 306.915 257.054 307.503 257.369L314.839 261.293C315.427 261.608 315.353 262.159 314.673 262.523L307.405 266.411C306.725 266.775 305.696 266.814 305.108 266.499Z" fill="#06033E"/>
<path d="M316.436 272.561L309.101 268.636C308.511 268.321 308.586 267.771 309.266 267.407L316.536 263.518C317.216 263.155 318.245 263.116 318.833 263.431L326.168 267.355C326.758 267.67 326.683 268.221 326.003 268.585L318.734 272.473C318.054 272.835 317.024 272.876 316.436 272.561Z" fill="#06033E"/>
<path d="M327.765 278.621L320.429 274.697C319.839 274.382 319.915 273.831 320.595 273.467L327.864 269.579C328.544 269.215 329.573 269.176 330.161 269.491L337.497 273.415C338.086 273.731 338.011 274.281 337.331 274.645L330.062 278.533C329.383 278.897 328.354 278.936 327.765 278.621Z" fill="#06033E"/>
<path d="M339.093 284.683L331.757 280.758C331.168 280.443 331.243 279.893 331.923 279.529L339.191 275.64C339.871 275.277 340.9 275.238 341.488 275.553L348.824 279.477C349.413 279.792 349.338 280.343 348.658 280.707L341.39 284.595C340.712 284.957 339.683 284.998 339.093 284.683Z" fill="#06033E"/>
<path d="M350.423 290.743L343.087 286.819C342.498 286.504 342.573 285.953 343.253 285.589L350.522 281.701C351.202 281.337 352.231 281.298 352.819 281.613L360.155 285.537C360.743 285.852 360.669 286.403 359.989 286.767L352.722 290.655C352.04 291.019 351.011 291.058 350.423 290.743Z" fill="#06033E"/>
<path d="M361.751 296.805L354.416 292.88C353.826 292.565 353.901 292.015 354.581 291.651L361.849 287.762C362.529 287.399 363.558 287.36 364.146 287.675L371.482 291.599C372.07 291.914 371.996 292.465 371.316 292.829L364.048 296.717C363.368 297.081 362.339 297.12 361.751 296.805Z" fill="#06033E"/>
<path d="M373.079 302.866L365.744 298.942C365.154 298.627 365.229 298.076 365.909 297.712L373.177 293.824C373.857 293.46 374.886 293.421 375.474 293.736L382.81 297.661C383.398 297.976 383.325 298.527 382.645 298.89L375.375 302.779C374.698 303.141 373.669 303.182 373.079 302.866Z" fill="#06033E"/>
<path d="M384.408 308.927L377.072 305.002C376.484 304.687 376.558 304.137 377.238 303.773L384.507 299.884C385.187 299.521 386.216 299.482 386.804 299.797L394.14 303.721C394.73 304.036 394.654 304.587 393.974 304.951L386.705 308.839C386.027 309.203 384.998 309.242 384.408 308.927Z" fill="#06033E"/>
<path d="M395.738 314.989L388.402 311.064C387.814 310.749 387.888 310.198 388.568 309.834L395.837 305.946C396.517 305.582 397.546 305.543 398.134 305.858L405.47 309.783C406.06 310.098 405.984 310.649 405.304 311.012L398.036 314.901C397.355 315.265 396.326 315.304 395.738 314.989Z" fill="#06033E"/>
<path d="M407.066 321.049L399.73 317.124C399.141 316.809 399.216 316.259 399.896 315.895L407.164 312.006C407.844 311.643 408.873 311.604 409.461 311.919L416.797 315.843C417.385 316.158 417.311 316.709 416.631 317.073L409.362 320.962C408.683 321.325 407.654 321.364 407.066 321.049Z" fill="#06033E"/>
<path d="M321.8 263.63L314.464 259.705C313.874 259.39 313.95 258.84 314.63 258.476L321.897 254.588C322.577 254.224 323.606 254.185 324.196 254.5L331.532 258.424C332.12 258.739 332.046 259.29 331.366 259.654L324.098 263.542C323.417 263.905 322.388 263.945 321.8 263.63Z" fill="#06033E"/>
<path d="M310.301 257.478L302.966 253.553C302.377 253.238 302.451 252.687 303.131 252.324L310.399 248.434C311.079 248.07 312.108 248.031 312.698 248.346L320.033 252.271C320.623 252.586 320.548 253.136 319.868 253.5L312.6 257.388C311.92 257.754 310.891 257.793 310.301 257.478Z" fill="#06033E"/>
<path d="M298.785 251.316L282.985 242.863C282.397 242.548 282.471 241.997 283.151 241.633L290.419 237.745C291.099 237.381 292.128 237.342 292.716 237.657L308.516 246.11C309.105 246.425 309.03 246.976 308.35 247.34L301.082 251.228C300.404 251.592 299.375 251.631 298.785 251.316Z" fill="#06033E"/>
<path d="M306.835 243.822L294.013 236.962C293.423 236.646 293.498 236.096 294.178 235.732L301.446 231.842C302.126 231.478 303.155 231.439 303.744 231.754L316.566 238.615C317.154 238.93 317.08 239.481 316.4 239.845L309.132 243.733C308.452 244.098 307.423 244.139 306.835 243.822Z" fill="#06033E"/>
<path d="M333.128 269.69L325.792 265.766C325.202 265.451 325.278 264.9 325.958 264.536L333.226 260.647C333.906 260.283 334.935 260.244 335.523 260.559L342.858 264.483C343.447 264.798 343.373 265.349 342.693 265.713L335.425 269.601C334.747 269.966 333.718 270.005 333.128 269.69Z" fill="#06033E"/>
<path d="M344.456 275.752L337.121 271.828C336.532 271.512 336.606 270.962 337.286 270.598L344.554 266.708C345.234 266.344 346.263 266.305 346.851 266.62L354.187 270.545C354.777 270.86 354.701 271.411 354.021 271.775L346.752 275.663C346.075 276.028 345.046 276.067 344.456 275.752Z" fill="#06033E"/>
<path d="M355.786 281.812L348.45 277.888C347.861 277.573 347.936 277.022 348.616 276.658L355.885 272.77C356.565 272.406 357.594 272.367 358.183 272.682L365.518 276.607C366.108 276.922 366.033 277.472 365.353 277.836L358.083 281.724C357.403 282.088 356.374 282.127 355.786 281.812Z" fill="#06033E"/>
<path d="M367.114 287.874L359.779 283.949C359.189 283.634 359.264 283.084 359.944 282.72L367.214 278.832C367.894 278.468 368.923 278.429 369.511 278.744L376.847 282.668C377.435 282.983 377.361 283.534 376.681 283.898L369.413 287.786C368.732 288.15 367.703 288.189 367.114 287.874Z" fill="#06033E"/>
<path d="M378.443 293.936L371.107 290.011C370.519 289.696 370.593 289.145 371.273 288.782L378.541 284.893C379.221 284.529 380.25 284.49 380.838 284.805L388.173 288.73C388.762 289.045 388.688 289.596 388.008 289.96L380.739 293.848C380.062 294.21 379.032 294.251 378.443 293.936Z" fill="#06033E"/>
<path d="M389.771 299.996L382.436 296.072C381.846 295.756 381.921 295.206 382.601 294.842L389.87 290.954C390.55 290.59 391.579 290.551 392.168 290.866L399.503 294.79C400.093 295.105 400.018 295.656 399.338 296.02L392.068 299.908C391.39 300.272 390.361 300.311 389.771 299.996Z" fill="#06033E"/>
<path d="M401.101 306.058L393.765 302.133C393.176 301.818 393.251 301.267 393.931 300.904L401.2 297.015C401.88 296.651 402.909 296.612 403.497 296.927L410.833 300.852C411.423 301.167 411.348 301.718 410.668 302.082L403.4 305.97C402.718 306.332 401.689 306.373 401.101 306.058Z" fill="#06033E"/>
<path d="M412.429 312.118L405.094 308.194C404.504 307.878 404.579 307.328 405.259 306.964L412.529 303.076C413.209 302.712 414.238 302.673 414.826 302.988L422.161 306.912C422.751 307.227 422.676 307.778 421.996 308.142L414.728 312.03C414.048 312.394 413.019 312.434 412.429 312.118Z" fill="#06033E"/>
<path d="M423.758 318.18L416.422 314.255C415.834 313.94 415.907 313.389 416.587 313.026L423.855 309.137C424.535 308.773 425.564 308.734 426.154 309.05L433.49 312.974C434.078 313.289 434.004 313.84 433.324 314.204L426.056 318.092C425.376 318.456 424.347 318.495 423.758 318.18Z" fill="#06033E"/>
<path d="M443.897 328.955L427.892 320.391C427.303 320.076 427.377 319.525 428.057 319.161L435.327 315.272C436.007 314.908 437.036 314.869 437.624 315.184L453.629 323.748C454.219 324.063 454.144 324.614 453.464 324.978L446.196 328.866C445.516 329.231 444.487 329.27 443.897 328.955Z" fill="#06033E"/>
<path d="M465.954 317.155L452.444 309.926C451.854 309.611 451.93 309.061 452.61 308.697L459.879 304.809C460.559 304.445 461.588 304.406 462.176 304.721L475.686 311.949C476.274 312.264 476.2 312.815 475.52 313.179L468.251 317.067C467.571 317.431 466.542 317.47 465.954 317.155Z" fill="#06033E"/>
<path d="M352.967 268.505L345.631 264.581C345.041 264.266 345.117 263.715 345.797 263.351L353.065 259.463C353.745 259.099 354.774 259.06 355.363 259.375L362.699 263.3C363.289 263.615 363.213 264.165 362.533 264.529L355.266 268.417C354.586 268.78 353.556 268.82 352.967 268.505Z" fill="#06033E"/>
<path d="M341.357 262.293L334.022 258.369C333.432 258.053 333.507 257.503 334.187 257.139L341.456 253.251C342.136 252.887 343.165 252.848 343.754 253.163L351.089 257.087C351.679 257.402 351.604 257.953 350.924 258.317L343.654 262.205C342.974 262.568 341.945 262.608 341.357 262.293Z" fill="#06033E"/>
<path d="M329.746 256.081L322.411 252.156C321.821 251.841 321.896 251.29 322.576 250.927L329.845 247.038C330.525 246.675 331.554 246.635 332.143 246.951L339.478 250.875C340.068 251.19 339.993 251.741 339.313 252.105L332.045 255.993C331.363 256.357 330.336 256.396 329.746 256.081Z" fill="#06033E"/>
<path d="M318.136 249.868L310.801 245.944C310.213 245.629 310.286 245.078 310.966 244.714L318.234 240.826C318.914 240.462 319.943 240.423 320.531 240.738L327.867 244.663C328.455 244.978 328.381 245.529 327.701 245.892L320.432 249.781C319.754 250.145 318.725 250.184 318.136 249.868Z" fill="#06033E"/>
<path d="M364.296 274.566L356.961 270.641C356.371 270.326 356.446 269.775 357.126 269.411L364.396 265.522C365.076 265.158 366.105 265.119 366.693 265.434L374.029 269.358C374.618 269.674 374.543 270.224 373.863 270.588L366.594 274.478C365.914 274.842 364.885 274.881 364.296 274.566Z" fill="#06033E"/>
<path d="M375.625 280.627L368.289 276.703C367.7 276.388 367.775 275.837 368.455 275.473L375.723 271.585C376.403 271.221 377.432 271.182 378.02 271.497L385.356 275.422C385.945 275.737 385.87 276.287 385.19 276.651L377.921 280.541C377.242 280.903 376.213 280.942 375.625 280.627Z" fill="#06033E"/>
<path d="M386.953 286.688L379.618 282.763C379.028 282.448 379.103 281.897 379.783 281.533L387.051 277.644C387.731 277.28 388.76 277.241 389.35 277.556L396.685 281.48C397.274 281.796 397.2 282.346 396.52 282.71L389.252 286.598C388.57 286.964 387.543 287.003 386.953 286.688Z" fill="#06033E"/>
<path d="M398.282 292.749L390.946 288.825C390.356 288.51 390.431 287.959 391.111 287.595L398.379 283.706C399.059 283.342 400.088 283.303 400.677 283.618L408.012 287.542C408.602 287.857 408.527 288.408 407.847 288.772L400.579 292.661C399.9 293.025 398.871 293.064 398.282 292.749Z" fill="#06033E"/>
<path d="M409.611 298.811L402.276 294.887C401.686 294.571 401.761 294.021 402.441 293.657L409.709 289.769C410.389 289.405 411.418 289.366 412.006 289.681L419.342 293.605C419.932 293.92 419.857 294.471 419.177 294.835L411.907 298.725C411.229 299.086 410.2 299.126 409.611 298.811Z" fill="#06033E"/>
<path d="M420.94 304.871L413.604 300.947C413.014 300.632 413.09 300.081 413.77 299.717L421.039 295.828C421.719 295.464 422.748 295.425 423.336 295.74L430.672 299.664C431.262 299.979 431.186 300.53 430.506 300.894L423.237 304.782C422.557 305.147 421.528 305.186 420.94 304.871Z" fill="#06033E"/>
<path d="M432.268 310.933L424.932 307.008C424.344 306.693 424.418 306.143 425.098 305.779L432.367 301.891C433.047 301.527 434.076 301.488 434.665 301.803L442 305.727C442.588 306.042 442.515 306.593 441.835 306.957L434.567 310.845C433.887 311.209 432.858 311.248 432.268 310.933Z" fill="#06033E"/>
<path d="M443.598 316.993L436.262 313.069C435.674 312.754 435.748 312.203 436.428 311.839L443.697 307.951C444.377 307.587 445.406 307.548 445.994 307.863L453.33 311.788C453.918 312.103 453.845 312.653 453.165 313.017L445.895 316.905C445.215 317.269 444.186 317.308 443.598 316.993Z" fill="#06033E"/>
<path d="M454.926 323.055L447.591 319.131C447.001 318.815 447.076 318.265 447.756 317.901L455.024 314.013C455.704 313.649 456.733 313.61 457.321 313.925L464.657 317.849C465.247 318.164 465.173 318.715 464.492 319.079L457.222 322.969C456.544 323.331 455.515 323.37 454.926 323.055Z" fill="#06033E"/>
<path d="M347.002 253.513L339.666 249.588C339.076 249.273 339.152 248.722 339.832 248.359L347.099 244.47C347.779 244.106 348.809 244.067 349.398 244.383L356.734 248.307C357.324 248.622 357.248 249.173 356.568 249.537L349.3 253.425C348.619 253.789 347.591 253.828 347.002 253.513Z" fill="#06033E"/>
<path d="M335.729 247.482L328.394 243.557C327.805 243.242 327.879 242.691 328.559 242.328L335.827 238.438C336.507 238.074 337.536 238.035 338.126 238.35L345.461 242.275C346.051 242.59 345.976 243.14 345.296 243.504L338.028 247.392C337.348 247.758 336.319 247.797 335.729 247.482Z" fill="#06033E"/>
<path d="M324.458 241.451L317.122 237.526C316.534 237.211 316.608 236.66 317.288 236.297L324.556 232.407C325.236 232.043 326.265 232.004 326.853 232.319L334.188 236.244C334.777 236.559 334.703 237.109 334.023 237.473L326.755 241.363C326.075 241.727 325.046 241.766 324.458 241.451Z" fill="#06033E"/>
<path d="M313.185 235.42L305.85 231.495C305.261 231.18 305.335 230.629 306.015 230.266L313.283 226.377C313.963 226.013 314.992 225.974 315.58 226.289L322.916 230.214C323.506 230.529 323.432 231.08 322.75 231.444L315.483 235.332C314.803 235.696 313.774 235.735 313.185 235.42Z" fill="#06033E"/>
<path d="M324.777 229.219L317.441 225.294C316.852 224.979 316.927 224.428 317.607 224.064L320.009 222.779C320.689 222.415 321.718 222.376 322.307 222.691L329.642 226.616C330.232 226.931 330.157 227.481 329.477 227.845L327.074 229.131C326.394 229.493 325.365 229.534 324.777 229.219Z" fill="#06033E"/>
<path d="M339.487 237.088L332.152 233.164C331.563 232.849 331.637 232.298 332.317 231.934L334.72 230.649C335.4 230.285 336.429 230.246 337.017 230.561L344.352 234.486C344.942 234.801 344.867 235.351 344.187 235.715L341.784 237.001C341.104 237.364 340.075 237.404 339.487 237.088Z" fill="#06033E"/>
<path d="M350.712 243.094L343.376 239.17C342.786 238.855 342.861 238.304 343.541 237.94L345.944 236.655C346.624 236.291 347.653 236.252 348.243 236.567L355.578 240.492C356.167 240.807 356.093 241.357 355.413 241.721L353.01 243.007C352.33 243.37 351.301 243.409 350.712 243.094Z" fill="#06033E"/>
<path d="M361.938 249.1L354.602 245.176C354.014 244.861 354.088 244.31 354.768 243.946L357.17 242.661C357.85 242.297 358.879 242.258 359.467 242.573L366.803 246.497C367.393 246.813 367.318 247.363 366.638 247.727L364.235 249.012C363.555 249.376 362.526 249.415 361.938 249.1Z" fill="#06033E"/>
<path d="M373.162 255.106L365.827 251.182C365.238 250.867 365.312 250.316 365.992 249.952L368.395 248.667C369.075 248.303 370.104 248.264 370.692 248.579L378.028 252.503C378.617 252.818 378.542 253.369 377.862 253.733L375.459 255.018C374.781 255.382 373.752 255.421 373.162 255.106Z" fill="#06033E"/>
<path d="M435.832 288.637L428.496 284.712C427.908 284.397 427.982 283.846 428.662 283.482L431.064 282.197C431.744 281.833 432.774 281.794 433.362 282.109L440.697 286.034C441.287 286.349 441.212 286.899 440.532 287.263L438.129 288.549C437.451 288.911 436.422 288.952 435.832 288.637Z" fill="#06033E"/>
<path d="M447.058 294.641L439.722 290.717C439.133 290.402 439.208 289.851 439.888 289.487L442.29 288.202C442.97 287.838 443.999 287.799 444.589 288.114L451.925 292.038C452.515 292.353 452.439 292.904 451.759 293.268L449.357 294.553C448.675 294.917 447.646 294.958 447.058 294.641Z" fill="#06033E"/>
<path d="M458.284 300.647L450.948 296.723C450.359 296.407 450.434 295.857 451.114 295.493L453.517 294.208C454.197 293.844 455.226 293.805 455.814 294.12L463.149 298.044C463.738 298.359 463.664 298.91 462.984 299.274L460.581 300.559C459.901 300.923 458.872 300.964 458.284 300.647Z" fill="#06033E"/>
<path d="M469.509 306.653L462.173 302.728C461.583 302.413 461.659 301.863 462.339 301.499L464.741 300.213C465.421 299.85 466.45 299.811 467.038 300.126L474.374 304.05C474.964 304.365 474.888 304.916 474.208 305.28L471.806 306.565C471.126 306.929 470.098 306.968 469.509 306.653Z" fill="#06033E"/>
<path d="M358.33 259.574L350.994 255.65C350.406 255.335 350.48 254.784 351.16 254.42L358.428 250.532C359.108 250.168 360.137 250.129 360.725 250.444L368.061 254.369C368.649 254.684 368.575 255.235 367.895 255.598L360.627 259.487C359.949 259.849 358.92 259.89 358.33 259.574Z" fill="#06033E"/>
<path d="M369.66 265.635L362.324 261.71C361.735 261.395 361.81 260.844 362.49 260.481L369.758 256.592C370.438 256.229 371.467 256.189 372.055 256.505L379.391 260.429C379.98 260.744 379.905 261.295 379.225 261.659L371.957 265.547C371.277 265.911 370.248 265.95 369.66 265.635Z" fill="#06033E"/>
<path d="M380.988 271.696L373.653 267.772C373.063 267.457 373.138 266.906 373.818 266.542L381.086 262.654C381.766 262.29 382.795 262.251 383.383 262.566L390.719 266.491C391.309 266.806 391.233 267.357 390.553 267.72L383.284 271.61C382.605 271.972 381.578 272.012 380.988 271.696Z" fill="#06033E"/>
<path d="M392.317 277.758L384.981 273.834C384.391 273.519 384.466 272.968 385.146 272.604L392.416 268.716C393.096 268.352 394.125 268.313 394.713 268.628L402.049 272.552C402.638 272.868 402.563 273.418 401.883 273.782L394.615 277.67C393.935 278.033 392.906 278.073 392.317 277.758Z" fill="#06033E"/>
<path d="M403.646 283.818L396.311 279.894C395.723 279.579 395.796 279.028 396.476 278.664L403.746 274.776C404.426 274.412 405.455 274.373 406.043 274.688L413.379 278.613C413.967 278.928 413.893 279.479 413.213 279.842L405.945 283.732C405.264 284.094 404.235 284.134 403.646 283.818Z" fill="#06033E"/>
<path d="M414.975 289.88L407.639 285.956C407.049 285.641 407.125 285.09 407.805 284.726L415.074 280.838C415.754 280.474 416.783 280.435 417.371 280.75L424.707 284.674C425.295 284.99 425.221 285.54 424.541 285.904L417.272 289.794C416.592 290.155 415.563 290.195 414.975 289.88Z" fill="#06033E"/>
<path d="M426.303 295.94L418.967 292.016C418.378 291.701 418.453 291.15 419.133 290.786L426.402 286.898C427.082 286.534 428.111 286.495 428.7 286.81L436.035 290.735C436.625 291.05 436.55 291.6 435.87 291.964L428.6 295.853C427.92 296.216 426.893 296.256 426.303 295.94Z" fill="#06033E"/>
<path d="M437.631 302.002L430.296 298.078C429.706 297.763 429.781 297.212 430.461 296.848L437.729 292.96C438.409 292.596 439.438 292.557 440.027 292.872L447.362 296.796C447.952 297.112 447.877 297.662 447.197 298.026L439.929 301.916C439.25 302.278 438.221 302.317 437.631 302.002Z" fill="#06033E"/>
<path d="M448.961 308.062L441.626 304.138C441.037 303.823 441.111 303.272 441.791 302.908L449.06 299.02C449.74 298.656 450.769 298.617 451.358 298.932L458.693 302.857C459.283 303.172 459.208 303.723 458.528 304.086L451.26 307.975C450.578 308.338 449.549 308.379 448.961 308.062Z" fill="#06033E"/>
<path d="M293.563 260.322L271.958 248.763C271.37 248.448 271.443 247.897 272.123 247.533L279.391 243.645C280.071 243.281 281.1 243.242 281.69 243.557L303.295 255.116C303.883 255.431 303.81 255.982 303.13 256.346L295.86 260.234C295.18 260.598 294.151 260.638 293.563 260.322Z" fill="#06033E"/>
<path d="M432.739 334.785L411.134 323.226C410.546 322.911 410.619 322.361 411.299 321.997L418.569 318.109C419.249 317.745 420.278 317.706 420.866 318.021L442.471 329.58C443.061 329.895 442.986 330.445 442.306 330.809L435.036 334.697C434.356 335.06 433.327 335.1 432.739 334.785Z" fill="#06033E"/>
<path d="M387.433 323.933L380.098 320.009C379.508 319.694 379.583 319.143 380.263 318.779L388.923 314.146C389.603 313.783 390.632 313.744 391.22 314.059L398.555 317.983C399.144 318.298 399.07 318.849 398.39 319.213L389.73 323.845C389.052 324.209 388.023 324.25 387.433 323.933Z" fill="#06033E"/>
<path d="M305.164 279.918L293.432 273.641C292.844 273.326 292.918 272.776 293.598 272.412L302.257 267.779C302.937 267.415 303.966 267.376 304.554 267.691L316.286 273.967C316.876 274.283 316.8 274.833 316.12 275.197L307.461 279.83C306.782 280.194 305.753 280.233 305.164 279.918Z" fill="#06033E"/>
<path d="M376.519 318.095L364.787 311.818C364.197 311.503 364.273 310.952 364.953 310.589L373.612 305.956C374.292 305.592 375.321 305.553 375.909 305.868L387.641 312.144C388.229 312.46 388.155 313.01 387.475 313.374L378.817 318.007C378.136 318.369 377.107 318.41 376.519 318.095Z" fill="#06033E"/>
<path d="M321.509 288.663L309.778 282.387C309.189 282.072 309.263 281.521 309.943 281.157L318.603 276.524C319.283 276.16 320.312 276.121 320.9 276.437L332.631 282.713C333.221 283.028 333.146 283.579 332.466 283.943L323.806 288.575C323.126 288.938 322.097 288.978 321.509 288.663Z" fill="#06033E"/>
<path d="M320.978 276.478L371.986 303.768C372.619 304.107 372.619 304.657 371.986 304.995L363.156 309.719C362.523 310.057 361.497 310.057 360.864 309.719L309.856 282.428L320.978 276.478Z" fill="#06033E"/>
<path d="M419.096 334.923L427.268 339.295C427.75 339.553 427.69 340.005 427.132 340.303L423.589 342.198C423.033 342.496 422.189 342.528 421.706 342.27L413.535 337.898C413.052 337.64 413.112 337.189 413.671 336.89L417.212 334.996C417.77 334.697 418.613 334.665 419.096 334.923Z" fill="#06033E"/>
<path d="M407.672 328.811L415.844 333.183C416.327 333.441 416.267 333.893 415.709 334.191L412.167 336.086C411.609 336.384 410.767 336.416 410.284 336.158L402.113 331.786C401.63 331.529 401.691 331.077 402.249 330.779L405.79 328.884C406.347 328.587 407.189 328.553 407.672 328.811Z" fill="#06033E"/>
<path d="M396.344 322.751L404.516 327.123C404.999 327.381 404.939 327.833 404.381 328.131L400.839 330.026C400.281 330.324 399.438 330.356 398.956 330.098L390.784 325.726C390.301 325.468 390.361 325.017 390.919 324.718L394.46 322.824C395.018 322.525 395.861 322.493 396.344 322.751Z" fill="#06033E"/>
<path d="M413.929 325.465L422.1 329.837C422.583 330.095 422.522 330.547 421.964 330.845L418.421 332.74C417.865 333.038 417.021 333.07 416.538 332.813L408.366 328.441C407.883 328.183 407.943 327.731 408.501 327.433L412.044 325.538C412.602 325.24 413.446 325.206 413.929 325.465Z" fill="#06033E"/>
</g>
<path d="M533.824 313.203L317.395 197.407C313.992 195.586 312.215 191.149 313.428 187.498L362.373 40.2338C363.585 36.5825 367.327 35.0978 370.73 36.9185L587.159 152.714C590.562 154.535 592.339 158.971 591.126 162.624L542.181 309.887C540.97 313.54 537.229 315.023 533.824 313.203Z" fill="url(#paint7_radial_52_599)"/>
<path d="M531.784 308.046L321.86 195.638C318.603 193.895 316.903 189.65 318.063 186.155L364.856 45.3712C366.016 41.8761 369.597 40.4555 372.854 42.1981L582.778 154.606C586.036 156.348 587.736 160.594 586.576 164.089L539.782 304.873C538.622 308.368 535.042 309.788 531.784 308.046Z" fill="url(#paint8_linear_52_599)"/>
<path opacity="0.4" d="M531.784 308.046L321.86 195.638C318.603 193.895 316.903 189.65 318.063 186.155L364.856 45.3712C366.016 41.8761 369.597 40.4555 372.854 42.1981L582.778 154.606C586.036 156.348 587.736 160.594 586.576 164.089L539.782 304.873C538.622 308.368 535.042 309.788 531.784 308.046Z" fill="#06033E"/>
<path opacity="0.4" d="M531.784 308.046L321.86 195.638C318.603 193.895 316.903 189.65 318.063 186.155L364.856 45.3712C366.016 41.8761 369.597 40.4555 372.854 42.1981L582.778 154.606C586.036 156.348 587.736 160.594 586.576 164.089L539.782 304.873C538.622 308.368 535.042 309.788 531.784 308.046Z" fill="#06033E"/>
<path opacity="0.5" d="M520.506 265.023L378.398 188.992C376.164 187.796 374.996 184.884 375.792 182.486L407.93 85.7913C408.725 83.3934 411.182 82.4189 413.418 83.6137L555.526 159.644C557.76 160.84 558.927 163.753 558.131 166.151L525.994 262.845C525.198 265.243 522.741 266.218 520.506 265.023Z" fill="#06033E"/>
<path d="M501.305 267.356L359.197 191.326C356.963 190.13 355.795 187.217 356.591 184.82L388.729 88.1251C389.524 85.7272 391.981 84.7527 394.215 85.9475L536.323 161.979C538.557 163.176 539.723 166.088 538.927 168.486L506.79 265.18C505.997 267.578 503.54 268.553 501.305 267.356Z" fill="url(#paint9_radial_52_599)"/>
<g opacity="0.5">
<path d="M501.305 267.356L359.197 191.326C356.963 190.13 355.795 187.217 356.591 184.82L388.729 88.1251C389.524 85.7272 391.981 84.7527 394.215 85.9475L536.323 161.979C538.557 163.176 539.723 166.088 538.927 168.486L506.79 265.18C505.997 267.578 503.54 268.553 501.305 267.356Z" fill="#06033E"/>
</g>
<path d="M536.325 161.979L394.217 85.9475C392.816 85.1988 391.33 85.302 390.218 86.0729C390.887 86.0548 391.587 86.1956 392.27 86.5595L534.378 162.59C536.612 163.785 537.778 166.699 536.982 169.096L504.845 265.791C504.547 266.686 504.017 267.382 503.355 267.842C504.879 267.8 506.238 266.843 506.791 265.177L538.929 168.483C539.726 166.088 538.559 163.174 536.325 161.979Z" fill="white"/>
<path opacity="0.4" d="M322.074 346.318C320.115 346.318 318.24 345.94 316.808 345.174V345.176L259.872 314.714C258.363 313.905 257.532 312.752 257.532 311.463C257.531 309.968 258.677 308.497 260.672 307.43L289.978 291.748C293.56 289.834 298.815 289.646 301.949 291.32L358.884 321.782C360.393 322.589 361.223 323.744 361.225 325.033C361.225 326.528 360.08 327.999 358.085 329.065L328.776 344.746C326.835 345.786 324.396 346.318 322.074 346.318ZM296.712 291.72C294.654 291.72 292.468 292.179 290.802 293.07L261.496 308.75C260.022 309.537 259.176 310.527 259.176 311.463C259.176 312.387 260.002 313.023 260.696 313.394L317.632 343.855C320.215 345.234 324.941 345.042 327.956 343.426L357.264 327.746C358.736 326.959 359.582 325.969 359.582 325.033C359.582 324.109 358.756 323.473 358.062 323.102L301.127 292.641C299.972 292.022 298.383 291.72 296.712 291.72Z" fill="#06033E"/>
<path d="M428.831 136.677L420.045 131.976C419.229 131.54 418.793 130.491 419.068 129.635C419.344 128.778 420.228 128.438 421.044 128.874L429.829 133.575C430.645 134.012 431.081 135.06 430.806 135.916C430.529 136.772 429.644 137.112 428.831 136.677Z" fill="white"/>
<path d="M449.757 147.874L436.802 140.942C435.987 140.506 435.551 139.457 435.826 138.601C436.101 137.744 436.986 137.404 437.801 137.84L450.756 144.77C451.571 145.207 452.008 146.255 451.732 147.111C451.457 147.968 450.572 148.31 449.757 147.874Z" fill="white"/>
<path d="M411.112 172.923L402.326 168.222C401.51 167.786 401.074 166.738 401.349 165.882C401.625 165.024 402.509 164.684 403.325 165.119L412.11 169.82C412.926 170.256 413.362 171.305 413.087 172.161C412.812 173.018 411.927 173.36 411.112 172.923Z" fill="white"/>
<path d="M429.766 182.905L416.812 175.975C415.996 175.539 415.56 174.49 415.835 173.634C416.111 172.777 416.995 172.437 417.811 172.873L430.765 179.805C431.581 180.241 432.017 181.29 431.742 182.146C431.466 183 430.582 183.34 429.766 182.905Z" fill="white"/>
<path d="M402.512 130.217L397.024 127.281C396.209 126.844 395.772 125.796 396.048 124.94C396.323 124.083 397.208 123.742 398.023 124.179L403.511 127.115C404.327 127.551 404.763 128.6 404.488 129.456C404.212 130.312 403.328 130.653 402.512 130.217Z" fill="white"/>
<path d="M419.026 146.673L402.258 137.702C401.443 137.266 401.006 136.217 401.282 135.361C401.557 134.504 402.442 134.164 403.257 134.6L420.025 143.571C420.841 144.008 421.277 145.056 421.002 145.912C420.726 146.769 419.842 147.11 419.026 146.673Z" fill="white"/>
<path d="M403.561 153.641L398.073 150.705C397.257 150.269 396.821 149.22 397.096 148.364C397.372 147.507 398.256 147.167 399.072 147.603L404.56 150.539C405.375 150.976 405.812 152.024 405.536 152.88C405.259 153.736 404.375 154.078 403.561 153.641Z" fill="white"/>
<path d="M431.79 199.229L417.131 191.386C416.315 190.95 415.879 189.901 416.154 189.045C416.43 188.188 417.314 187.848 418.13 188.284L432.789 196.127C433.604 196.564 434.041 197.612 433.765 198.468C433.488 199.324 432.605 199.666 431.79 199.229Z" fill="white"/>
<path d="M397.409 165.593L393.886 163.708C393.07 163.272 392.634 162.223 392.91 161.367C393.185 160.51 394.069 160.17 394.885 160.606L398.408 162.491C399.224 162.927 399.66 163.976 399.385 164.832C399.108 165.688 398.225 166.028 397.409 165.593Z" fill="white"/>
<path d="M394.075 179.051L389.701 176.71C388.885 176.274 388.449 175.225 388.724 174.369C389 173.512 389.884 173.172 390.7 173.608L395.074 175.949C395.89 176.385 396.326 177.433 396.051 178.289C395.775 179.145 394.891 179.487 394.075 179.051Z" fill="white"/>
<path d="M411.095 188.157L399.561 181.987C398.745 181.55 398.309 180.502 398.584 179.646C398.859 178.789 399.744 178.448 400.559 178.885L412.094 185.055C412.909 185.492 413.346 186.54 413.07 187.396C412.795 188.252 411.91 188.593 411.095 188.157Z" fill="white"/>
<path d="M395.9 187.648L387.608 183.211C386.793 182.774 386.356 181.726 386.632 180.87C386.907 180.013 387.791 179.672 388.607 180.109L396.901 184.546C397.716 184.983 398.152 186.031 397.877 186.887C397.6 187.743 396.716 188.085 395.9 187.648Z" fill="white"/>
<path d="M444.365 205.991L439.04 203.141C438.224 202.705 437.788 201.657 438.063 200.801C438.339 199.943 439.223 199.603 440.039 200.039L445.364 202.889C446.18 203.325 446.616 204.374 446.341 205.23C446.065 206.086 445.181 206.426 444.365 205.991Z" fill="white"/>
<path d="M423.976 164.564L409.317 156.721C408.501 156.284 408.065 155.236 408.34 154.38C408.616 153.523 409.5 153.182 410.316 153.619L424.975 161.462C425.79 161.899 426.227 162.947 425.951 163.803C425.676 164.659 424.791 165 423.976 164.564Z" fill="white"/>
<path d="M425.714 157.872L400.165 144.203C399.35 143.766 398.914 142.718 399.189 141.862C399.464 141.005 400.349 140.665 401.164 141.101L426.713 154.77C427.528 155.207 427.964 156.255 427.689 157.111C427.414 157.967 426.529 158.309 425.714 157.872Z" fill="#E8975B"/>
<path d="M410.638 165.049L395.979 157.206C395.163 156.77 394.727 155.721 395.002 154.865C395.277 154.008 396.162 153.668 396.977 154.104L411.637 161.947C412.452 162.384 412.888 163.432 412.613 164.288C412.338 165.144 411.453 165.486 410.638 165.049Z" fill="#E8975B"/>
<path d="M435.094 170.513L429.768 167.663C428.952 167.227 428.516 166.179 428.791 165.323C429.067 164.465 429.951 164.125 430.767 164.561L436.092 167.411C436.908 167.847 437.344 168.896 437.069 169.752C436.794 170.608 435.909 170.949 435.094 170.513Z" fill="#E8975B"/>
<path d="M489.27 169.014L457.729 152.14C456.914 151.703 456.478 150.655 456.753 149.799C457.028 148.941 457.913 148.601 458.728 149.038L490.269 165.912C491.084 166.349 491.52 167.397 491.245 168.253C490.97 169.109 490.085 169.449 489.27 169.014Z" fill="#E8975B"/>
<path d="M409.415 179.636L391.793 170.209C390.978 169.773 390.542 168.724 390.817 167.868C391.092 167.011 391.977 166.671 392.792 167.106L410.413 176.533C411.229 176.969 411.665 178.018 411.39 178.874C411.115 179.731 410.23 180.073 409.415 179.636Z" fill="#F8359E"/>
<path d="M412.071 127.71L399.117 120.779C398.301 120.342 397.865 119.294 398.14 118.438C398.416 117.58 399.3 117.24 400.116 117.677L413.07 124.608C413.886 125.045 414.322 126.093 414.047 126.949C413.771 127.805 412.887 128.147 412.071 127.71Z" fill="#F8359E"/>
<path d="M393.191 193.82L378.187 185.793C377.372 185.356 376.935 184.308 377.211 183.452C377.486 182.595 378.371 182.254 379.186 182.689L394.19 190.717C395.005 191.153 395.441 192.202 395.166 193.058C394.891 193.915 394.006 194.256 393.191 193.82Z" fill="#E8975B"/>
<path d="M492.811 153.983L486.39 150.546C485.794 150.227 485.474 149.462 485.677 148.836C485.878 148.21 486.525 147.96 487.121 148.279L493.542 151.714C494.138 152.034 494.457 152.799 494.255 153.426C494.052 154.051 493.407 154.301 492.811 153.983Z" fill="white"/>
<path d="M505.06 160.537L498.638 157.1C498.042 156.781 497.723 156.015 497.924 155.389C498.126 154.763 498.773 154.514 499.369 154.833L505.79 158.268C506.385 158.588 506.704 159.353 506.503 159.979C506.303 160.605 505.656 160.854 505.06 160.537Z" fill="white"/>
<path d="M517.309 167.089L510.888 163.654C510.292 163.335 509.973 162.569 510.175 161.943C510.377 161.317 511.023 161.068 511.619 161.387L518.04 164.822C518.636 165.141 518.956 165.907 518.755 166.533C518.552 167.159 517.905 167.408 517.309 167.089Z" fill="white"/>
<path d="M523.33 170.315L523.137 170.208C522.541 169.888 522.222 169.123 522.424 168.497C522.626 167.871 523.272 167.622 523.868 167.941L524.061 168.048C524.657 168.367 524.976 169.133 524.774 169.759C524.572 170.385 523.925 170.634 523.33 170.315Z" fill="#F8359E"/>
<path d="M191.664 240.102C187.619 240.102 183.571 239.123 179.963 237.164L137.131 213.927C135.273 212.919 134.165 211.116 134.165 209.101C134.165 207.085 135.273 205.282 137.131 204.275L179.961 181.039C187.178 177.123 196.15 177.122 203.367 181.039L246.199 204.276C248.057 205.284 249.165 207.087 249.165 209.102C249.165 211.118 248.057 212.921 246.199 213.928L203.369 237.164C199.76 239.123 195.712 240.102 191.664 240.102ZM181.356 234.897C187.716 238.345 195.616 238.345 201.977 234.897L244.808 211.661C245.79 211.126 246.379 210.17 246.379 209.104C246.379 208.037 245.79 207.08 244.808 206.546L201.976 183.309C195.613 179.858 187.713 179.861 181.354 183.309L138.524 206.545C137.541 207.08 136.953 208.035 136.953 209.102C136.953 210.17 137.541 211.126 138.524 211.66L181.356 234.897Z" fill="url(#paint10_linear_52_599)"/>
<path opacity="0.6" d="M212.562 220.974C201.023 227.147 182.314 227.147 170.775 220.974C159.236 214.8 159.236 204.791 170.775 198.617C182.314 192.444 201.023 192.444 212.562 198.617C224.101 204.791 224.101 214.799 212.562 220.974Z" fill="#020230"/>
<path d="M235.468 97.1215H151.308L159.135 181.563C159.135 186.253 162.48 190.943 169.168 194.521C182.546 201.679 204.233 201.679 217.609 194.521C224.298 190.943 227.642 186.253 227.641 181.563L235.468 97.1215Z" fill="url(#paint11_radial_52_599)"/>
<path opacity="0.4" d="M235.468 97.1215H151.308L152.596 111.014C154.524 113.306 157.119 115.503 160.396 117.516C176.478 127.402 203.013 129.308 221.121 122.188L218.321 183.948C218.199 186.64 217.196 189.259 215.314 191.312C212.588 194.286 207.336 197.784 197.239 199.762C204.682 199.314 211.905 197.576 217.611 194.523C224.299 190.944 227.644 186.254 227.642 181.564L233.92 113.844L235.468 97.1215Z" fill="#06033E"/>
<path opacity="0.4" d="M193.388 119.635C216.628 119.635 235.468 109.556 235.468 97.1215C235.468 84.6874 216.628 74.6076 193.388 74.6076C170.148 74.6076 151.308 84.6874 151.308 97.1215C151.308 109.556 170.148 119.635 193.388 119.635Z" fill="#06033E"/>
<path opacity="0.4" d="M193.388 108.579C213.405 108.579 229.633 99.8962 229.633 89.1861C229.633 78.476 213.405 69.7937 193.388 69.7937C173.371 69.7937 157.143 78.476 157.143 89.1861C157.143 99.8962 173.371 108.579 193.388 108.579Z" fill="#06033E"/>
<path d="M237.961 96.0604L237.966 96.066L237.958 95.9977C237.955 95.9586 237.949 95.921 237.946 95.8819L237.138 88.3216L237.104 88.4066C236.742 82.6837 232.489 77.0179 224.325 72.6501C207.239 63.5087 179.538 63.5087 162.454 72.6501C154.083 77.1294 149.824 82.9709 149.657 88.8402L149.647 88.8206L148.876 95.5529C148.855 95.7286 148.83 95.9029 148.816 96.0785L148.804 96.1887L148.812 96.1831C148.35 102.597 152.687 109.091 161.84 113.988C179.264 123.31 207.516 123.31 224.942 113.988C234.149 109.061 238.486 102.515 237.961 96.0604Z" fill="url(#paint12_linear_52_599)"/>
<path d="M193.388 108.579C213.405 108.579 229.633 99.8962 229.633 89.1861C229.633 78.476 213.405 69.7937 193.388 69.7937C173.371 69.7937 157.143 78.476 157.143 89.1861C157.143 99.8962 173.371 108.579 193.388 108.579Z" fill="url(#paint13_linear_52_599)"/>
<path d="M191.668 108.579C211.686 108.579 227.913 99.8962 227.913 89.1861C227.913 78.476 211.686 69.7937 191.668 69.7937C171.651 69.7937 155.424 78.476 155.424 89.1861C155.424 99.8962 171.651 108.579 191.668 108.579Z" fill="url(#paint14_linear_52_599)"/>
<path opacity="0.4" d="M172.058 78.3621C186.212 70.7891 209.162 70.7891 223.316 78.3621C223.496 78.4582 223.647 78.5642 223.823 78.6618C222.457 77.5339 220.863 76.4618 219.016 75.4734C204.861 67.9005 181.912 67.9005 167.759 75.4734C153.784 82.9502 153.634 95.0038 167.252 102.598C158.159 95.0847 159.752 84.9466 172.058 78.3621Z" fill="#06033E"/>
<path d="M167.758 78.8389C181.914 71.2659 204.862 71.2659 219.017 78.8389C225.294 82.1973 228.781 86.4801 229.491 90.8688C230.382 85.3606 226.894 79.6879 219.017 75.4734C204.862 67.9005 181.914 67.9005 167.758 75.4734C159.881 79.6879 156.394 85.3606 157.285 90.8674C157.995 86.4801 161.482 82.1973 167.758 78.8389Z" fill="url(#paint15_linear_52_599)"/>
<path d="M224.594 72.8273C207.533 63.5131 179.731 63.2859 162.496 72.3212C145.261 81.3552 145.121 96.2307 162.182 105.545C179.242 114.859 207.044 115.086 224.28 106.052C241.515 97.017 241.654 82.1415 224.594 72.8273ZM219.017 102.899C214.289 105.429 208.572 107.094 202.536 107.933L201.879 105.93C201.613 105.121 200.808 104.568 199.896 104.568H186.881C185.97 104.568 185.163 105.121 184.898 105.93L184.241 107.933C178.205 107.094 172.49 105.429 167.762 102.899C153.606 95.3259 153.606 83.0477 167.76 75.4748C181.914 67.9018 204.864 67.9018 219.017 75.4748C233.171 83.0477 233.171 95.3259 219.017 102.899Z" fill="url(#paint16_radial_52_599)"/>
<path d="M219.016 74.0388C204.861 66.4659 181.912 66.4659 167.759 74.0388C160.34 78.0079 156.817 83.2694 157.175 88.4681C157.5 83.7476 161.023 79.0786 167.759 75.4748C181.912 67.9019 204.862 67.9019 219.016 75.4748C225.751 79.0786 229.275 83.7476 229.599 88.4695C229.959 83.2694 226.436 78.0079 219.016 74.0388Z" fill="white"/>
<path d="M224.278 104.615C207.044 113.649 179.242 113.423 162.18 104.108C154.062 99.6755 149.847 93.9833 149.507 88.2604C149.171 94.4573 153.382 100.739 162.18 105.543C179.242 114.858 207.044 115.085 224.278 106.051C233.311 101.316 237.641 94.9759 237.266 88.673C236.952 94.4949 232.626 100.24 224.278 104.615Z" fill="white"/>
<path d="M197.277 108.976H189.498C188.954 108.976 188.515 108.567 188.515 108.065V107.939C188.515 107.435 188.954 107.027 189.498 107.027H197.277C197.82 107.027 198.259 107.435 198.259 107.939V108.065C198.261 108.567 197.82 108.976 197.277 108.976Z" fill="#0C0A78"/>
<path d="M197.277 107.027H189.498C188.954 107.027 188.515 107.435 188.515 107.939V108.065C188.515 108.152 188.544 108.229 188.568 108.308C188.684 107.926 189.048 107.64 189.498 107.64H197.277C197.727 107.64 198.091 107.926 198.207 108.308C198.231 108.229 198.259 108.152 198.259 108.065V107.939C198.261 107.434 197.82 107.027 197.277 107.027Z" fill="url(#paint17_linear_52_599)"/>
<path opacity="0.5" d="M196.073 108.1C196.073 108.1 219.341 100.802 209.919 75.7752C200.497 50.7488 182.155 43.1216 189.544 23.1016C189.544 23.1016 177.964 39.3086 188.786 61.2365C199.607 83.1643 201.98 80.6451 201.854 91.1328C201.702 103.592 190.95 108.102 190.95 108.102L196.073 108.1Z" fill="white"/>
<path opacity="0.5" d="M198.312 26.5717C198.312 26.5717 195.838 11.3952 211.165 -3.89844C211.165 -3.89844 197.61 24.2197 202.044 38.1016C202.044 38.1016 198.458 29.2766 198.312 26.5717Z" fill="white"/>
</g>
<defs>
<linearGradient id="paint0_linear_52_599" x1="642.164" y1="371.602" x2="691.164" y2="371.602" gradientUnits="userSpaceOnUse">
<stop stop-color="#E39A65"/>
<stop offset="1" stop-color="#E95F8D"/>
</linearGradient>
<linearGradient id="paint1_linear_52_599" x1="575.164" y1="309.601" x2="657.165" y2="309.601" gradientUnits="userSpaceOnUse">
<stop stop-color="#E39A65"/>
<stop offset="1" stop-color="#E95F8D"/>
</linearGradient>
<linearGradient id="paint2_linear_52_599" x1="31.165" y1="335.102" x2="114.165" y2="335.102" gradientUnits="userSpaceOnUse">
<stop stop-color="#E39A65"/>
<stop offset="1" stop-color="#E95F8D"/>
</linearGradient>
<linearGradient id="paint3_linear_52_599" x1="127.439" y1="330.219" x2="567.271" y2="330.219" gradientUnits="userSpaceOnUse">
<stop stop-color="#E39A65"/>
<stop offset="1" stop-color="#E95F8D"/>
</linearGradient>
<radialGradient id="paint4_radial_52_599" cx="0" cy="0" r="1" gradientUnits="userSpaceOnUse" gradientTransform="translate(370.384 28.4522) scale(335.932 311.305)">
<stop stop-color="#E39A65"/>
<stop offset="0.4742" stop-color="#A92FFB"/>
<stop offset="0.5947" stop-color="#891CFB"/>
<stop offset="0.7421" stop-color="#6507FA"/>
<stop offset="0.8016" stop-color="#0D0C6F"/>
</radialGradient>
<radialGradient id="paint5_radial_52_599" cx="0" cy="0" r="1" gradientUnits="userSpaceOnUse" gradientTransform="translate(164.92 278.453) scale(367.339 340.409)">
<stop stop-color="#E39A65"/>
<stop offset="0.4742" stop-color="#A92FFB"/>
<stop offset="0.5679" stop-color="#891CFB"/>
<stop offset="0.6825" stop-color="#6507FA"/>
<stop offset="0.7381" stop-color="#0D0C6F"/>
</radialGradient>
<radialGradient id="paint6_radial_52_599" cx="0" cy="0" r="1" gradientUnits="userSpaceOnUse" gradientTransform="translate(198.705 210.127) scale(329.409 305.26)">
<stop stop-color="#E39A65"/>
<stop offset="0.4742" stop-color="#A92FFB"/>
<stop offset="0.5875" stop-color="#891CFB"/>
<stop offset="0.7262" stop-color="#6507FA"/>
<stop offset="1" stop-color="#3919BB"/>
</radialGradient>
<radialGradient id="paint7_radial_52_599" cx="0" cy="0" r="1" gradientUnits="userSpaceOnUse" gradientTransform="translate(280.768 93.3876) scale(336 311.367)">
<stop stop-color="#E39A65"/>
<stop offset="0.4742" stop-color="#A92FFB"/>
<stop offset="0.5875" stop-color="#891CFB"/>
<stop offset="0.7262" stop-color="#6507FA"/>
<stop offset="1" stop-color="#3919BB"/>
</radialGradient>
<linearGradient id="paint8_linear_52_599" x1="317.698" y1="175.122" x2="586.94" y2="175.122" gradientUnits="userSpaceOnUse">
<stop stop-color="#3919BB"/>
<stop offset="1" stop-color="#6507FA"/>
</linearGradient>
<radialGradient id="paint9_radial_52_599" cx="0" cy="0" r="1" gradientUnits="userSpaceOnUse" gradientTransform="translate(158.109 26.8966) scale(523.311 484.946)">
<stop stop-color="#E39A65"/>
<stop offset="0.4742" stop-color="#A92FFB"/>
<stop offset="0.5875" stop-color="#891CFB"/>
<stop offset="0.7262" stop-color="#6507FA"/>
<stop offset="1" stop-color="#3919BB"/>
</radialGradient>
<linearGradient id="paint10_linear_52_599" x1="134.164" y1="209.103" x2="249.165" y2="209.103" gradientUnits="userSpaceOnUse">
<stop stop-color="#E39A65"/>
<stop offset="1" stop-color="#E95F8D"/>
</linearGradient>
<radialGradient id="paint11_radial_52_599" cx="0" cy="0" r="1" gradientUnits="userSpaceOnUse" gradientTransform="translate(144.374 121.944) scale(248.755 230.519)">
<stop stop-color="#E39A65"/>
<stop offset="0.1528" stop-color="#A92FFB"/>
<stop offset="0.4087" stop-color="#3919BB"/>
<stop offset="0.9311" stop-color="#3919BB"/>
</radialGradient>
<linearGradient id="paint12_linear_52_599" x1="148.777" y1="93.3873" x2="238.003" y2="93.3873" gradientUnits="userSpaceOnUse">
<stop stop-color="#E39A65"/>
<stop offset="0.252" stop-color="#A92FFB"/>
<stop offset="0.5556" stop-color="#3919BB"/>
</linearGradient>
<linearGradient id="paint13_linear_52_599" x1="157.143" y1="89.1861" x2="229.633" y2="89.1861" gradientUnits="userSpaceOnUse">
<stop stop-color="#4F1FEC"/>
<stop offset="1" stop-color="#A92FFB"/>
</linearGradient>
<linearGradient id="paint14_linear_52_599" x1="155.423" y1="89.1861" x2="227.913" y2="89.1861" gradientUnits="userSpaceOnUse">
<stop stop-color="#4F1FEC"/>
<stop offset="1" stop-color="#A92FFB"/>
</linearGradient>
<linearGradient id="paint15_linear_52_599" x1="157.149" y1="80.332" x2="248.546" y2="80.332" gradientUnits="userSpaceOnUse">
<stop stop-color="#131060"/>
<stop offset="0.1857" stop-color="#141062"/>
<stop offset="0.2823" stop-color="#19106A"/>
<stop offset="0.3584" stop-color="#221078"/>
<stop offset="0.4238" stop-color="#2E0F8B"/>
<stop offset="0.4823" stop-color="#3E0FA3"/>
<stop offset="0.5359" stop-color="#510EC2"/>
<stop offset="0.5847" stop-color="#680DE5"/>
<stop offset="0.6071" stop-color="#740DF8"/>
<stop offset="0.6179" stop-color="#7A14F0"/>
<stop offset="0.6826" stop-color="#9B3CC3"/>
<stop offset="0.7477" stop-color="#B75D9D"/>
<stop offset="0.8123" stop-color="#CC7680"/>
<stop offset="0.8762" stop-color="#DC886C"/>
<stop offset="0.9391" stop-color="#E5935F"/>
<stop offset="1" stop-color="#E8975B"/>
</linearGradient>
<radialGradient id="paint16_radial_52_599" cx="0" cy="0" r="1" gradientUnits="userSpaceOnUse" gradientTransform="translate(137.64 69.9937) scale(162.725 150.796)">
<stop stop-color="#E39A65"/>
<stop offset="0.252" stop-color="#A92FFB"/>
<stop offset="0.7357" stop-color="#3919BB"/>
</radialGradient>
<linearGradient id="paint17_linear_52_599" x1="187.651" y1="107.667" x2="200.295" y2="107.667" gradientUnits="userSpaceOnUse">
<stop stop-color="#131060"/>
<stop offset="0.1857" stop-color="#141062"/>
<stop offset="0.2823" stop-color="#19106A"/>
<stop offset="0.3584" stop-color="#221078"/>
<stop offset="0.4238" stop-color="#2E0F8B"/>
<stop offset="0.4823" stop-color="#3E0FA3"/>
<stop offset="0.5359" stop-color="#510EC2"/>
<stop offset="0.5847" stop-color="#680DE5"/>
<stop offset="0.6071" stop-color="#740DF8"/>
<stop offset="0.6179" stop-color="#7A14F0"/>
<stop offset="0.6826" stop-color="#9B3CC3"/>
<stop offset="0.7477" stop-color="#B75D9D"/>
<stop offset="0.8123" stop-color="#CC7680"/>
<stop offset="0.8762" stop-color="#DC886C"/>
<stop offset="0.9391" stop-color="#E5935F"/>
<stop offset="1" stop-color="#E8975B"/>
</linearGradient>
<clipPath id="clip0_52_599">
<rect width="736" height="501" fill="white"/>
</clipPath>
</defs>
</svg>
